# xmcd
#
# Track frame offsets:
#	150
#	21146
#	36675
#	57651
#	74562
#	96375
#	124057
#	142751
#	160949
#	177593
#	199545
#	215825
#
# Disc length: 3148 seconds
#
# Revision: 1
# Processed by: cddbd v1.5.2PL0 Copyright (c) Steve Scherf et al.
# Submitted via: audiograbber 1.83.01
#
DISCID=be0c4a0c
DTITLE=Jessy Martens and Band - Break Your Curse
DYEAR=2013
DGENRE=Blues
TTITLE0=How Beautiful
TTITLE1=Break Your Curse
TTITLE2=You're Not The One I Need
TTITLE3=Darling
TTITLE4=My Love
TTITLE5=Shaking Off The Shackles
TTITLE6=Run With Me
TTITLE7=Trust Me
TTITLE8=Wake Up
TTITLE9=Silence
TTITLE10=Stranger
TTITLE11=Human Nature
EXTD=
EXTT0=
EXTT1=
EXTT2=
EXTT3=
EXTT4=
EXTT5=
EXTT6=
EXTT7=
EXTT8=
EXTT9=
EXTT10=
EXTT11=
PLAYORDER=
